<?xml version="1.0" encoding="UTF-8"?>
<!-- Created with Grafika (https://www.grafika.cc/) -->
<svg xmlns="http://www.w3.org/2000/svg" xmlns:svg="http://www.w3.org/2000/svg" xmlns:xlink="http://www.w3.org/1999/xlink" width="673.15" height="768" viewBox="0 0 1145.01 1306.33" preserveAspectRatio="xMidYMid meet">
	<path d="M667.36,-0 L619.02,33.9 L716.52,396.5 L764.11,363.13 L667.36,-0 ZM143.47,170.85 L95.14,204.75 L192.64,567.35 L240.22,533.98 L143.47,170.85 ZM587.35,481.44 C580.36,481.55 573.28,482.63 566.12,484.67 C553.77,488.19 542.95,494.67 533.68,504.09 C524.4,513.51 517.46,524.46 512.84,536.94 C508.23,549.42 506.95,562.17 509,575.21 L506.79,575.85 C502.15,563.54 494.71,553.27 484.45,545.03 C474.26,536.78 462.64,531.12 449.61,528.05 C436.64,524.97 423.6,525.3 410.52,529.03 C396.2,533.11 384.16,540.3 374.4,550.59 C364.69,560.8 358.03,572.76 354.43,586.48 C350.81,600.14 351.05,614.13 355.13,628.45 C360.5,647.31 369.36,664.26 381.68,679.28 C393.99,694.25 408.13,707.36 424.09,718.63 C440.12,729.87 456.42,739.48 472.98,747.45 C489.52,755.36 504.87,761.78 519.04,766.72 C525.05,768.79 528.54,769.68 533.56,771.29 C539.66,790.01 544.63,809.33 547.76,829.61 C553.4,865.98 554.76,903.43 551.82,941.97 C548.98,980.52 542.21,1018.93 531.51,1057.2 C520.82,1095.38 506.34,1132.11 488.05,1167.39 C469.86,1202.68 448.29,1234.96 423.34,1264.23 L476.22,1306.33 C504.33,1277.11 528.49,1243.3 548.7,1204.9 C568.9,1166.6 585.01,1125.61 597.04,1081.94 C609.18,1038.28 616.74,994.17 619.73,949.61 C619.97,946.3 619.72,943.13 619.9,939.83 C621.81,942.53 623.29,945.34 625.25,948.02 C651.49,984.15 681.37,1017.47 714.87,1047.98 C748.31,1078.55 783.76,1104.68 821.24,1126.36 C858.79,1148.12 897.24,1163.89 936.59,1173.67 L958.95,1109.88 C922.25,1098.38 886.81,1082.52 852.63,1062.32 C818.37,1042.19 786.56,1018.8 757.2,992.16 C727.77,965.45 701.6,936.54 678.68,905.41 C655.69,874.35 636.9,841.92 622.33,808.13 C612.71,785.88 606.3,763.4 601.34,740.81 C610.15,729.75 619.08,717.48 628.21,703.2 C638.08,687.7 646.83,670.95 654.46,652.96 C662.15,634.95 667.25,616.35 669.76,597.17 C672.3,577.9 670.89,558.84 665.51,539.97 C661.43,525.65 654.25,513.64 643.98,503.95 C633.75,494.17 621.79,487.51 608.09,483.97 C601.26,482.17 594.35,481.32 587.35,481.44 ZM1104.27,522.28 L730.31,556.06 L755.01,608.68 L1129.36,575.72 L1104.27,522.28 ZM772.58,639.31 L779.41,697.03 L1145.01,784 L1138.07,725.37 L772.58,639.31 ZM331.43,660.61 L0,837.09 L8.26,895.55 L339.56,718.16 L331.43,660.61 ZM341.63,753.42 L82.9,1025.54 L109.2,1078.4 L367.52,805.46 L341.63,753.42 Z" fill-rule="evenodd" style="fill" />
</svg>
